HIERARCHY
ROOT Hips
{
	OFFSET 0.00000 0.00000 0.00000
	CHANNELS 6 Xposition Yposition Zposition Yrotation Zrotation Xrotation 
	JOINT Lumbar
	{
		OFFSET 0 0 0
		CHANNELS 3 Zrotation Xrotation Yrotation
		JOINT Neck
		{
			OFFSET 0.00 0.2701 0.00
			CHANNELS 3 Zrotation Xrotation Yrotation
			End Site
			{
				OFFSET 0.00 0.1379 0.00
			}
		}
		JOINT RightShoulder
		{
			OFFSET 0.0119 0.2289 0.1181
			CHANNELS 3 Zrotation Xrotation Yrotation
			JOINT RightElbow
			{
				OFFSET 0.00 -0.1475 0.00
				CHANNELS 2 Zrotation Yrotation
				JOINT RightWrist
				{
					OFFSET 0.00 -0.1605 0.00
					CHANNELS 2 Zrotation Xrotation
					End Site
					{
						OFFSET 0.0040 -0.1068 0.0006
					}
				}
			}
		}
		JOINT LeftShoulder
		{
			OFFSET 0.0119 0.2289 -0.1181
			CHANNELS 3 Zrotation Xrotation Yrotation
			JOINT LeftElbow
			{
				OFFSET 0.00 -0.1475 0.00
				CHANNELS 2 Zrotation Yrotation
				JOINT LeftWrist
				{
					OFFSET 0.00 -0.1605 0.00
					CHANNELS 2 Zrotation Xrotation
					End Site
					{
						OFFSET 0.0040 -0.1068 -0.0006
					}
				}
			}
		}
	}
	JOINT RightHip
	{
		OFFSET 0.0316 -0.0424 0.0458
		CHANNELS 3 Zrotation Xrotation Yrotation
		JOINT RightKnee
		{
			OFFSET 0.00 -0.2438 0.00
			CHANNELS 1 Zrotation
			JOINT RightAnkle
			{
				OFFSET 0.00 -0.2449 0.00
				CHANNELS 3 Zrotation Xrotation Yrotation
				End Site
				{
					OFFSET 0.1237 -0.0542 0.0051
				}
			}
		}
	}
	JOINT LeftHip
	{
		OFFSET 0.0316 -0.0424 -0.0458
		CHANNELS 3 Zrotation Xrotation Yrotation
		JOINT LeftKnee
		{
			OFFSET 0.00 -0.2438 0.00
			CHANNELS 1 Zrotation
			JOINT LeftAnkle
			{
				OFFSET 0.00 -0.2449 0.00
				CHANNELS 3 Zrotation Xrotation Yrotation
				End Site
				{
					OFFSET 0.1237 -0.0542 -0.0051
				}
			}
		}
	}
}
MOTION
Frames: 11
Frame Time: 0.02
-0.99206 -0.0279 -0.563 917.67828 -66.96646 4.05676 0.43895 0.93722 12.17407 3.81393 -3.66042 -0.83079 70.83428 -12.99893 42.56877 10.70005 90.63539 -23.74727 -8.14475 44.90682 34.00325 -23.82926 16.88331 -96.89061 -31.44031 3.26883 87.25484 0.02282 -10.57518 -40.45829 -6.42718 -3.56481 -2.49268 81.15257 20.88405 -2.17604 -27.70799 -10.02631 4.02163 2.92195
-0.99346 -0.02794 -0.56303 917.50454 -67.6513 3.45445 0.25326 0.83458 11.97786 4.40735 -3.75352 -0.83079 71.31103 -13.0422 43.98118 11.57873 90.82011 -24.21065 -7.66382 46.70877 35.57794 -22.89667 15.47251 -94.63703 -30.90891 3.37911 87.92261 0.31204 -10.69191 -40.5658 -6.44354 -3.63179 -2.52923 81.41093 20.78302 -3.50343 -26.502 -10.3307 4.15664 3.01795
-0.99465 -0.02812 -0.56238 916.85553 -68.36992 2.56869 0.09872 0.58815 11.85403 5.15441 -3.96173 -0.83079 71.69889 -13.01326 44.67237 12.55464 91.53976 -24.70782 -7.12711 48.62674 37.17691 -21.95288 14.40271 -92.11313 -30.45863 3.62289 88.68675 0.63673 -10.8174 -40.78666 -6.4587 -3.68309 -2.55731 81.44504 20.68233 -5.25513 -25.13511 -10.77319 4.32154 3.13947
-0.99594 -0.02823 -0.56203 916.45082 -69.06843 1.82653 -0.07771 0.42032 11.68573 5.82966 -4.12425 -0.83079 72.13948 -13.0043 45.67518 13.45853 92.01653 -25.17719 -6.62366 50.54846 38.72606 -20.99922 13.17151 -89.83801 -29.98062 3.8046 89.40234 0.9397 -10.92914 -40.95541 -6.47518 -3.74286 -2.59007 81.61077 20.58343 -6.77735 -23.89037 -11.13914 4.4674 3.24541
-0.99722 -0.02837 -0.56171 915.93467 -69.78907 1.02503 -0.21901 0.1996 11.56461 6.51619 -4.25368 -0.83079 72.52005 -13.05557 46.75166 14.48683 92.47871 -25.70283 -6.08524 52.23602 40.44238 -20.17573 11.95498 -87.06388 -29.4967 3.9902 90.13982 1.26835 -11.07034 -41.12477 -6.4889 -3.79858 -2.62025 81.65238 20.46774 -8.46614 -22.43017 -11.56252 4.63891 3.36958
-0.99847 -0.02849 -0.56117 915.53071 -70.47176 0.27527 -0.42608 0.05384 11.36276 7.21315 -4.48207 -0.83079 73.00802 -12.96018 47.49791 15.27613 93.10096 -26.11645 -5.60943 54.43625 41.8118 -18.99406 10.79766 -85.22434 -29.00579 4.20184 90.85402 1.54968 -11.16203 -41.31952 -6.50761 -3.85772 -2.65304 81.89887 20.39068 -9.90352 -21.38232 -11.89953 4.76316 3.46135
-0.99968 -0.02858 -0.56024 915.59932 -71.02983 -0.22241 -0.83428 0.14827 10.9241 7.91932 -4.94668 -0.83079 73.80862 -12.49883 47.5512 15.38519 94.06706 -26.23099 -5.28963 58.03376 42.25583 -17.57973 9.6715 -86.41402 -28.81721 4.43465 91.47871 1.71132 -11.0467 -41.56906 -6.54404 -3.9389 -2.7002 82.76457 20.41719 -10.55042 -21.53181 -11.96208 4.74849 3.45678
-1.00086 -0.02866 -0.55911 915.78654 -71.55002 -0.66674 -1.30809 0.32273 10.40137 8.62715 -5.50917 -0.83079 74.72226 -11.88784 47.2898 15.2488 95.17227 -26.2288 -5.03975 62.13908 42.34275 -15.68617 8.60348 -88.50674 -28.56901 4.69399 92.07669 1.82137 -10.89229 -41.83838 -6.58497 -4.02259 -2.74941 83.84415 20.48448 -10.92616 -22.10016 -11.93336 4.68498 3.41862
-1.00205 -0.02874 -0.55806 915.89039 -72.09501 -1.16003 -1.74446 0.46176 9.9148 9.32222 -6.0333 -0.83079 75.58926 -11.33075 47.14327 15.22148 96.1944 -26.26641 -4.77843 66.00717 42.568 -13.49046 7.54194 -89.90396 -28.10552 4.95113 92.68765 1.94087 -10.80448 -42.09087 -6.62126 -4.09892 -2.79408 84.82665 20.53605 -11.42013 -22.46489 -11.94801 4.64419 3.39609
-1.00323 -0.02886 -0.55704 916.10838 -72.6102 -1.55406 -2.21156 0.59303 9.43898 10.07332 -6.53555 -0.83079 76.43405 -10.83065 47.08668 15.20798 97.31779 -26.35733 -4.4316 69.91402 42.89531 -13.40098 6.35292 -92.39442 -28.60923 5.16507 93.29834 2.11674 -10.52097 -42.38021 -6.66791 -4.19986 -2.85307 85.80129 20.57491 -11.95229 -22.87781 -11.95975 4.60245 3.37303
-1.00443 -0.02889 -0.55593 916.11515 -73.17677 -2.14452 -2.63101 0.75983 8.92034 10.70615 -7.10508 -0.83079 77.35186 -10.17736 46.78209 15.10629 98.25761 -26.31386 -4.27735 73.84992 42.92487 -8.92185 5.43919 -92.9525 -27.15719 5.48138 93.90212 2.16746 -10.6228 -42.59622 -6.69474 -4.25172 -2.88363 86.84546 20.65085 -12.33234 -23.29452 -11.95372 4.55047 3.34263
